<?xml version="1.0" encoding="iso-8859-1"?>
<!-- Generator: Adobe Illustrator 19.0.0, SVG Export Plug-In . SVG Version: 6.00 Build 0)  -->
<svg version="1.1" id="Capa_1" xmlns="http://www.w3.org/2000/svg" xmlns:xlink="http://www.w3.org/1999/xlink" x="0px" y="0px"
	 viewBox="0 0 512 512" style="enable-background:new 0 0 512 512;" xml:space="preserve">
<g>
	<g>
		<path d="M485.048,159.458c-6.826-20.4-22.323-36.738-42.333-44.633c-16.45-4.637-33.867-4.605-50.3,0.092l-6.917,1.625
			c-20.117,6.19-41.226,8.512-62.208,6.842c-16.565-2.423-32.797-6.743-48.375-12.875V102.4
			c12.823,0.031,23.682-9.452,25.376-22.163s-6.3-24.708-18.684-28.037l6.175-18.5c2.602-7.808,1.293-16.391-3.52-23.068
			C279.449,3.956,271.72,0,263.49,0h-72.108c-8.23-0.002-15.96,3.954-20.771,10.632c-4.812,6.677-6.118,15.262-3.512,23.068
			l5.831,17.5h-0.415c-14.139,0-25.6,11.461-25.6,25.6s11.461,25.6,25.6,25.6v48.633c-0.228,19.839-12.287,37.622-30.633,45.175
			c-6.715,2.913-13.277,6.167-19.661,9.748c-0.782,0.289-1.515,0.694-2.176,1.201c-17.944,10.176-34.386,22.798-48.853,37.503
			c-0.426,0.374-0.812,0.792-1.152,1.246c-13.35,13.742-24.658,29.33-33.579,46.285c-0.458,0.645-0.821,1.351-1.079,2.098
			c-10.406,19.796-16.044,41.75-16.466,64.11c0.095,20.556,5.448,40.747,15.551,58.65c0.079,0.202,0.205,0.373,0.3,0.569
			c9.426,16.485,21.778,31.114,36.451,43.168c0.35,0.357,0.731,0.683,1.14,0.972c13.037,10.616,27.337,19.579,42.573,26.688
			c0.345,0.196,0.704,0.368,1.073,0.516c30.865,14.102,64.243,21.874,98.163,22.857l0.075,0.015l0.081-0.012
			c3.116,0.106,6.244,0.179,9.394,0.179c3.15,0,6.278-0.073,9.394-0.179l0.081,0.012l0.075-0.015
			c33.773-0.979,67.012-8.686,97.77-22.669c0.452-0.171,0.889-0.381,1.306-0.627c15.284-7.116,29.628-16.098,42.704-26.741
			c0.418-0.295,0.808-0.627,1.166-0.993c14.667-12.05,27.016-26.671,36.443-43.148c0.098-0.202,0.227-0.379,0.309-0.588
			c10.103-17.904,15.457-38.096,15.553-58.654c-0.037-7.528-0.753-15.038-2.138-22.438c4.048-2.628,7.919-5.519,11.588-8.654
			C485.423,287.608,505.665,215.442,485.048,159.458z M184.456,20.609c1.604-2.227,4.182-3.545,6.926-3.542h72.108
			c2.744-0.001,5.321,1.317,6.926,3.543c1.605,2.226,2.042,5.087,1.174,7.69l-7.642,22.9h-73.033l-7.625-22.9
			C182.418,25.698,182.852,22.836,184.456,20.609z M163.982,76.8c0.003-4.711,3.822-8.53,8.533-8.533h102.4
			c4.713,0,8.533,3.82,8.533,8.533s-3.82,8.533-8.533,8.533h-102.4C167.803,85.33,163.985,81.512,163.982,76.8z M148.582,211.908
			c24.638-10.233,40.778-34.197,41-60.875V102.4h68.267v48.633c0.222,26.678,16.362,50.641,41,60.875
			c17.124,7.368,33.162,17.04,47.669,28.748c-75.103,49.695-172.291,51.018-248.719,3.385l-0.553-0.346
			C112.694,230.624,129.994,219.912,148.582,211.908z M371.13,354.16l-16.875,40.865l-16.896-40.852l16.898-40.878L371.13,354.16z
			 M363.491,290.956l9.995-24.179c8.081,9.426,15.155,19.672,21.105,30.57l-14.23,34.459L363.491,290.956z M328.121,331.835
			l-18.142-43.869c-0.06-0.159-0.122-0.308-0.192-0.465l-3.078-7.444c17.492-6.575,34.177-15.125,49.73-25.483
			c1.095-0.758,1.992-1.768,2.617-2.944c0.529,0.5,1.071,0.992,1.594,1.498L328.121,331.835z M154.669,290.923l1.388-3.358
			c10.257,2.741,20.68,4.818,31.204,6.217l-15.707,38.002L154.669,290.923z M162.321,354.121l-16.881,40.842l-16.874-40.873
			l16.873-40.83L162.321,354.121z M197.598,313.354l16.884,40.839l-16.84,40.728l-16.873-40.831L197.598,313.354z M208.708,295.571
			c3.605,0.156,7.208,0.371,10.816,0.371c6.467,0,12.929-0.302,19.379-0.807l-15.188,36.73L208.708,295.571z M249.807,313.427
			l16.867,40.769l-16.864,40.776l-16.859-40.774L249.807,313.427z M259.702,292.542c10.41-1.669,20.702-4.003,30.814-6.988
			l2.274,5.497l-16.857,40.757L259.702,292.542z M302.019,313.373l16.871,40.798l-16.856,40.785l-16.873-40.819L302.019,313.373z
			 M139.642,282.59l-20.302,49.133l-17.967-43.398c-0.075-0.233-0.158-0.466-0.25-0.7l-12.011-28.908
			C104.992,268.571,121.945,276.581,139.642,282.59z M110.133,354.086l-16.9,40.841L76.35,354.09l16.891-40.798L110.133,354.086z
			 M73.963,266.753l10.054,24.191l-16.896,40.817L52.84,297.344C58.796,286.439,65.875,276.186,73.963,266.753z M35.982,358.4
			c0.154-13.527,2.614-26.928,7.274-39.627l14.657,35.321L41.965,392.64C38.018,381.655,35.994,370.072,35.982,358.4z
			 M74.222,440.867c-8.621-8.17-16.131-17.438-22.337-27.565l15.245-36.846l16.865,40.795L74.222,440.867z M87.88,452.496
			l5.346-12.917l9.568,23.145C97.653,459.568,92.675,456.155,87.88,452.496z M102.463,417.252l16.877-40.786l16.862,40.849
			l-16.855,40.781L102.463,417.252z M159.674,486.744c-10.07-2.665-19.943-6.028-29.547-10.062h0l15.297-37.029l16.847,40.81
			L159.674,486.744z M154.661,417.295l16.879-40.861l16.867,40.823l-16.894,40.858L154.661,417.295z M208.663,494.456
			c-10.772-0.607-21.494-1.905-32.099-3.888l21.074-50.968l16.848,40.777L208.663,494.456z M206.874,417.265l16.844-40.738
			l16.856,40.773l-16.85,40.744L206.874,417.265z M238.769,494.456L238.769,494.456l-5.817-14.075l16.853-40.751l21.06,50.939
			C260.261,492.55,249.54,493.849,238.769,494.456z M259.041,417.298l16.866-40.783l16.883,40.808l-16.866,40.807L259.041,417.298z
			 M287.756,486.744l-2.599-6.285l16.869-40.81l15.315,37.018C307.724,480.707,297.839,484.075,287.756,486.744z M328.169,458.19
			l-16.902-40.896l16.86-40.788l16.898,40.866L328.169,458.19z M344.675,462.699l9.548-23.083l5.327,12.88
			C354.767,456.145,349.802,459.55,344.675,462.699z M373.21,440.864l-9.751-23.578l16.88-40.815l15.206,36.83
			C389.34,423.427,381.831,432.694,373.21,440.864z M405.473,392.619l-15.894-38.485l14.608-35.319
			c4.652,12.687,7.107,26.074,7.26,39.585C411.436,370.065,409.414,381.64,405.473,392.619z M426.965,314.259
			c-1.775,1.508-3.435,2.808-5.067,4.044c-2.644-8.258-5.941-16.293-9.858-24.029c-0.257-0.737-0.616-1.435-1.067-2.073
			c-8.925-16.963-20.238-32.558-33.594-46.306c-0.339-0.452-0.723-0.868-1.148-1.241c-14.466-14.701-30.905-27.321-48.846-37.495
			c-0.661-0.508-1.395-0.914-2.177-1.202c-6.384-3.581-12.946-6.835-19.661-9.748c-18.346-7.553-30.405-25.336-30.633-45.175
			v-22.404c14.929,5.486,30.391,9.398,46.133,11.671c23.042,1.978,46.249-0.448,68.383-7.15l6.85-1.617
			c13.308-3.881,27.419-4.085,40.833-0.592c15.182,6.21,26.855,18.795,31.908,34.4C486.982,214.092,468.532,279.492,426.965,314.259
			z"/>
	</g>
</g>
<g>
</g>
<g>
</g>
<g>
</g>
<g>
</g>
<g>
</g>
<g>
</g>
<g>
</g>
<g>
</g>
<g>
</g>
<g>
</g>
<g>
</g>
<g>
</g>
<g>
</g>
<g>
</g>
<g>
</g>
</svg>
