<svg width="405" height="361" viewBox="0 0 405 361" fill="none" xmlns="http://www.w3.org/2000/svg">
<path fill-rule="evenodd" clip-rule="evenodd" d="M404.981 261.817V96.8169H15.5001V81.8169H22.4806V66.8169H15.5001V0.182983H0.500107V360.034H15.5001V291.817H22.4806V276.817H15.5001V261.817H404.981ZM15.5001 111.817H389.981V246.817H15.5001V111.817ZM45.2208 216.817H82.7208V201.817H60.2208V186.817H75.2208V171.817H60.2208V156.817H82.7208V141.817H45.2208V216.817ZM127.721 162.547L117.358 141.817H97.7208V156.817H108.088L119.338 179.317L108.088 201.817H97.7208V216.817H117.358L127.721 196.086L138.088 216.817H157.721V201.817H147.358L136.108 179.317L147.358 156.817H157.721V141.817H138.088L127.721 162.547ZM187.721 141.817H172.721V216.817H187.721V141.817ZM202.721 156.817H217.721V216.817H232.721V156.817H247.721V141.817H202.721V156.817ZM322.721 171.817L310.721 162.817L319.721 150.817L357.721 179.317L319.721 207.817L310.721 195.817L322.721 186.817H262.721V171.817H322.721Z" fill="black"/>
</svg>
